{
    "asset" : {
        "generator" : "Khronos glTF Blender I/O v1.6.16",
        "version" : "2.0"
    },
    "extensionsUsed" : [
        "KHR_materials_unlit"
    ],
    "scene" : 0,
    "scenes" : [
        {
            "name" : "Scene",
            "nodes" : [
                0
            ]
        }
    ],
    "nodes" : [
        {
            "mesh" : 0,
            "name" : "king",
            "rotation" : [
                0,
                0,
                0,
                -1
            ]
        }
    ],
    "materials" : [
        {
            "doubleSided" : true,
            "extensions" : {
                "KHR_materials_unlit" : {}
            },
            "name" : "Material.002",
            "pbrMetallicRoughness" : {
                "metallicFactor" : 0,
                "roughnessFactor" : 0.9
            }
        },
        {
            "doubleSided" : true,
            "extensions" : {
                "KHR_materials_unlit" : {}
            },
            "name" : "Material",
            "pbrMetallicRoughness" : {
                "metallicFactor" : 0,
                "roughnessFactor" : 0.9
            }
        }
    ],
    "meshes" : [
        {
            "name" : "Cylinder.003",
            "primitives" : [
                {
                    "attributes" : {
                        "POSITION" : 0,
                        "NORMAL" : 1,
                        "TEXCOORD_0" : 2
                    },
                    "indices" : 3,
                    "material" : 0
                },
                {
                    "attributes" : {
                        "POSITION" : 4,
                        "NORMAL" : 5,
                        "TEXCOORD_0" : 6
                    },
                    "indices" : 7,
                    "material" : 1
                }
            ]
        }
    ],
    "accessors" : [
        {
            "bufferView" : 0,
            "componentType" : 5126,
            "count" : 3385,
            "max" : [
                1,
                0.1000000461935997,
                1
            ],
            "min" : [
                -1,
                -0.10000037401914597,
                -1
            ],
            "type" : "VEC3"
        },
        {
            "bufferView" : 1,
            "componentType" : 5126,
            "count" : 3385,
            "type" : "VEC3"
        },
        {
            "bufferView" : 2,
            "componentType" : 5126,
            "count" : 3385,
            "type" : "VEC2"
        },
        {
            "bufferView" : 3,
            "componentType" : 5123,
            "count" : 3480,
            "type" : "SCALAR"
        },
        {
            "bufferView" : 4,
            "componentType" : 5126,
            "count" : 980,
            "max" : [
                1,
                -0.02697864919900894,
                0.9999999403953552
            ],
            "min" : [
                -1,
                -0.10000037401914597,
                -1
            ],
            "type" : "VEC3"
        },
        {
            "bufferView" : 5,
            "componentType" : 5126,
            "count" : 980,
            "type" : "VEC3"
        },
        {
            "bufferView" : 6,
            "componentType" : 5126,
            "count" : 980,
            "type" : "VEC2"
        },
        {
            "bufferView" : 7,
            "componentType" : 5123,
            "count" : 984,
            "type" : "SCALAR"
        }
    ],
    "bufferViews" : [
        {
            "buffer" : 0,
            "byteLength" : 40620,
            "byteOffset" : 0
        },
        {
            "buffer" : 0,
            "byteLength" : 40620,
            "byteOffset" : 40620
        },
        {
            "buffer" : 0,
            "byteLength" : 27080,
            "byteOffset" : 81240
        },
        {
            "buffer" : 0,
            "byteLength" : 6960,
            "byteOffset" : 108320
        },
        {
            "buffer" : 0,
            "byteLength" : 11760,
            "byteOffset" : 115280
        },
        {
            "buffer" : 0,
            "byteLength" : 11760,
            "byteOffset" : 127040
        },
        {
            "buffer" : 0,
            "byteLength" : 7840,
            "byteOffset" : 138800
        },
        {
            "buffer" : 0,
            "byteLength" : 1968,
            "byteOffset" : 146640
        }
    ],
    "buffers" : [
        {
            "byteLength" : 148608,
            "uri" : "data:application/octet-stream;base64,"
        }
    ]
}
